<svg width="512" height="512" viewBox="0 0 512 512" fill="none" xmlns="http://www.w3.org/2000/svg">
<path d="M474.669 0H38V417.594H474.669V0Z" fill="white"/>
<path fill-rule="evenodd" clip-rule="evenodd" d="M38.0003 421.171H385.187L474.666 512V220.488H38L38.0003 421.171ZM264.94 62.665C259.808 62.665 255.644 66.8284 255.644 71.9639V127.423C255.644 127.461 255.655 127.493 255.655 127.531C255.714 148.475 272.763 165.499 293.73 165.499C314.732 165.499 331.82 148.418 331.82 127.423C331.82 106.419 314.732 89.3409 293.73 89.3409C286.604 89.3409 279.949 91.3441 274.242 94.7626V71.9639C274.242 66.8284 270.084 62.665 264.94 62.665ZM293.73 107.939C304.478 107.939 313.211 116.683 313.211 127.423C313.211 138.169 304.478 146.902 293.73 146.902C282.992 146.902 274.242 138.169 274.242 127.423C274.242 116.683 282.992 107.939 293.73 107.939ZM350.948 89.4094C345.805 89.4094 341.646 93.5791 341.646 98.7099V130.504C341.646 141.78 343.233 157.565 356.933 164.465C361.52 166.77 367.114 164.919 369.424 160.334C371.727 155.74 369.878 150.157 365.291 147.847C364.044 147.224 360.244 145.3 360.244 130.504V98.71C360.244 93.5791 356.087 89.4094 350.948 89.4094ZM350.953 62.7023C345.295 62.7023 340.719 67.2811 340.719 72.936C340.719 78.5848 345.295 83.1573 350.953 83.1573C356.596 83.1573 361.182 78.5848 361.182 72.936C361.182 67.2811 356.596 62.7023 350.953 62.7023ZM398.904 180.553V160.031C404.61 163.451 411.263 165.451 418.385 165.451C439.383 165.451 456.464 148.373 456.464 127.372C456.464 106.376 439.383 89.2927 418.385 89.2927C397.387 89.2927 380.299 106.376 380.299 127.372V180.553C380.299 185.692 384.463 189.849 389.601 189.849C394.74 189.849 398.904 185.692 398.904 180.553ZM418.385 107.892C429.122 107.892 437.866 116.63 437.866 127.372C437.866 138.114 429.122 146.852 418.385 146.852C407.636 146.852 398.904 138.114 398.904 127.372C398.904 116.63 407.636 107.892 418.385 107.892ZM38.0001 0V18.9541H474.666V0H38.0001Z" fill="url(#paint0_linear_533_651)"/>
<defs>
<linearGradient id="paint0_linear_533_651" x1="99.1333" y1="256.001" x2="413.531" y2="256.001" gradientUnits="userSpaceOnUse">
<stop stop-color="#DA251D"/>
<stop offset="0.501961" stop-color="#89211B"/>
</linearGradient>
</defs>
</svg>
